<?xml version="1.0" standalone="no"?>
<!DOCTYPE svg PUBLIC "-//W3C//DTD SVG 20010904//EN"
 "http://www.w3.org/TR/2001/REC-SVG-20010904/DTD/svg10.dtd">
<svg version="1.0" xmlns="http://www.w3.org/2000/svg"
 width="469.000000pt" height="242.000000pt" viewBox="0 0 469.000000 242.000000"
 preserveAspectRatio="xMidYMid meet">

<g transform="translate(0.000000,242.000000) scale(0.100000,-0.100000)"
fill="#000000" stroke="none">
<path d="M3240 2389 c-25 -10 -57 -18 -72 -18 -35 -1 -36 -14 -3 -35 14 -9 25
-26 25 -39 0 -37 -60 -241 -76 -259 -12 -12 -37 -17 -103 -20 -78 -3 -92 -6
-125 -31 -64 -49 -90 -100 -94 -181 -2 -58 1 -77 17 -104 20 -31 55 -52 86
-52 21 0 83 58 122 114 l35 51 -7 -45 c-16 -101 -14 -105 30 -108 32 -2 47 3
78 28 43 36 48 55 13 46 -32 -8 -56 2 -56 24 0 35 140 546 161 587 11 23 19
46 18 50 -2 5 -24 1 -49 -8z m-159 -409 c27 -15 24 -29 -21 -99 -49 -76 -124
-157 -151 -164 -53 -14 -78 78 -40 151 46 88 151 144 212 112z"/>
<path d="M1608 2207 c-51 -15 -63 -22 -121 -76 -131 -122 -119 -337 24 -441
52 -37 104 -52 185 -51 84 0 131 21 149 65 15 36 20 76 9 76 -3 0 -26 -22 -51
-50 -29 -33 -57 -53 -81 -59 -124 -34 -243 87 -246 249 -2 122 45 213 128 251
102 46 236 -8 236 -95 0 -42 26 -31 38 16 9 36 8 45 -6 61 -48 54 -174 79
-264 54z"/>
<path d="M2246 2038 c-11 -6 -38 -15 -60 -20 -62 -14 -122 -53 -168 -111 -81
-102 -110 -204 -69 -241 28 -25 55 -13 123 52 32 30 61 52 65 48 4 -4 6 -26 4
-51 -2 -36 1 -46 19 -55 18 -10 28 -7 60 14 38 25 87 92 76 103 -3 4 -22 -8
-40 -27 -42 -40 -66 -35 -66 13 0 33 14 78 64 209 26 69 24 84 -8 66z m-58
-100 c9 -73 -138 -236 -193 -214 -37 14 -8 101 57 172 68 74 130 93 136 42z"/>
<path d="M2410 1998 c-37 -26 -58 -54 -47 -64 4 -4 16 1 27 11 11 10 26 15 36
11 21 -8 15 -42 -22 -129 -50 -119 -55 -137 -44 -157 24 -44 43 -26 125 116
55 95 126 179 147 172 26 -9 18 -49 -27 -142 -57 -115 -58 -149 -5 -154 29 -2
43 4 75 32 45 38 42 57 -4 30 -22 -13 -34 -15 -41 -8 -11 11 -4 34 54 169 39
91 32 135 -20 135 -29 0 -74 -38 -130 -111 -25 -33 -49 -59 -54 -59 -17 0 -19
31 -4 86 8 32 12 64 10 71 -8 20 -39 16 -76 -9z"/>
<path d="M3380 2009 c-129 -52 -176 -295 -67 -347 44 -21 101 -7 148 37 61 59
50 81 -19 37 -59 -39 -87 -42 -116 -12 -51 50 -20 132 44 120 45 -9 118 22
141 60 25 41 24 62 -6 91 -26 27 -78 33 -125 14z m68 -45 c29 -20 28 -48 -4
-73 -41 -32 -94 -26 -94 11 0 19 50 78 67 78 5 0 19 -7 31 -16z"/>
<path d="M3602 1990 c-23 -17 -42 -37 -42 -45 0 -20 7 -19 37 5 56 44 56 -20
-1 -149 -38 -88 -45 -135 -21 -145 24 -9 41 3 61 42 36 70 144 231 166 247 63
43 63 -10 3 -135 -55 -111 -56 -143 -7 -148 36 -4 96 27 106 55 9 24 0 27 -26
9 -60 -42 -63 -3 -8 119 41 92 49 142 28 163 -32 32 -76 6 -153 -89 -31 -38
-61 -69 -67 -69 -10 0 -8 32 8 133 6 34 4 37 -18 37 -14 0 -44 -14 -66 -30z"/>
<path d="M540 1577 c-3 -3 -32 -7 -65 -10 -155 -15 -293 -68 -344 -133 -12
-15 -21 -24 -21 -20 0 3 -9 -3 -20 -14 -11 -11 -20 -24 -20 -30 0 -5 -5 -10
-11 -10 -7 0 -4 -11 6 -27 l18 -28 -24 20 c-13 11 -21 16 -17 12 3 -5 0 -24
-8 -43 -15 -36 -11 -99 7 -110 5 -3 7 -9 5 -13 -12 -19 50 -60 103 -67 39 -5
52 -4 47 4 -5 8 -2 10 8 6 9 -3 16 -1 16 4 0 6 9 14 20 17 17 5 18 9 8 28 -10
20 -10 21 6 8 15 -13 19 -13 27 0 5 8 9 22 9 33 0 15 -3 16 -15 6 -8 -7 -12
-17 -8 -23 3 -6 1 -7 -6 -3 -6 4 -9 11 -6 15 2 5 -7 13 -20 19 -14 7 -25 17
-25 23 0 8 -6 7 -17 -2 -16 -13 -17 -12 -4 4 11 14 11 20 0 34 -10 11 -10 14
-1 9 8 -5 12 1 12 23 0 16 5 33 11 36 6 4 8 14 4 23 -3 9 -3 13 1 9 8 -8 55
52 49 63 -2 4 2 7 10 7 8 0 11 -5 8 -10 -4 -6 9 1 28 15 70 52 250 85 344 63
23 -5 26 -4 15 4 -9 7 -11 11 -3 11 7 0 16 -6 20 -13 10 -16 72 -39 84 -31 5
3 9 0 9 -6 0 -6 12 -16 27 -23 33 -15 78 -62 94 -99 6 -16 15 -28 20 -28 5 0
7 -34 5 -75 -2 -52 0 -73 7 -68 6 4 1 -8 -12 -25 -12 -18 -19 -37 -15 -43 4
-8 3 -9 -4 -5 -7 4 -12 2 -12 -4 0 -6 -7 -18 -15 -26 -10 -10 -15 -11 -15 -4
0 8 -10 10 -25 8 -14 -3 -25 -2 -25 2 0 9 -31 18 -93 25 -30 4 -47 2 -47 -5 0
-6 -8 -3 -19 7 -16 16 -18 33 -17 151 2 116 0 132 -13 126 -9 -3 -28 -10 -43
-16 -19 -7 -25 -15 -21 -26 3 -12 2 -13 -4 -4 -11 15 -68 -1 -93 -26 -8 -8
-10 -12 -4 -9 8 5 15 -14 22 -56 15 -83 21 -162 13 -150 -3 5 -15 8 -26 8 -11
-1 -33 -2 -48 -3 -16 -1 -26 -6 -23 -11 4 -5 -2 -7 -12 -4 -23 6 -99 -33 -112
-57 -7 -13 -3 -22 15 -38 14 -12 25 -19 25 -16 0 4 6 1 14 -5 7 -6 22 -8 31
-4 14 5 16 3 10 -7 -6 -10 -3 -12 13 -8 12 4 25 2 28 -3 3 -5 21 -9 41 -9 34
0 62 -20 63 -45 0 -5 -5 -3 -10 5 -14 22 -13 -45 1 -72 7 -13 7 -18 1 -14 -6
3 -13 2 -17 -4 -4 -6 -10 -8 -15 -5 -5 3 -21 0 -37 -6 -15 -6 -35 -12 -43 -13
-30 -3 -90 -28 -86 -35 3 -4 0 -8 -7 -8 -25 0 -66 -34 -60 -50 4 -10 2 -14 -4
-10 -17 11 -70 -64 -58 -83 3 -6 2 -10 -3 -10 -12 0 -15 -97 -3 -104 6 -4 8
-13 5 -20 -3 -7 2 -21 11 -30 9 -9 14 -16 10 -16 -3 0 10 -20 31 -45 20 -25
39 -43 42 -40 3 2 -1 11 -8 20 -11 13 -10 14 4 9 9 -3 16 -13 16 -21 0 -21 28
-46 41 -37 8 4 9 3 5 -5 -7 -11 32 -33 47 -24 4 2 7 0 7 -5 0 -11 76 -32 117
-32 16 0 35 -6 41 -12 19 -19 238 -17 292 2 7 3 32 6 58 8 14 1 22 9 22 20 0
14 2 15 10 2 8 -12 13 -11 33 8 13 13 28 22 33 20 18 -4 54 14 48 24 -5 7 -1
9 9 5 11 -4 17 -1 17 9 0 8 -4 12 -10 9 -6 -4 -7 1 -3 11 5 15 7 15 15 0 5 -9
14 -14 19 -11 5 4 6 11 3 17 -4 6 -3 9 2 5 14 -8 47 20 38 34 -4 7 -3 10 3 6
6 -4 23 9 37 28 15 19 22 35 16 35 -6 0 0 15 13 33 13 17 22 40 20 49 -3 10 1
18 8 18 7 0 10 2 7 6 -3 3 -2 22 3 42 16 69 -48 250 -105 300 -11 9 -17 12
-13 6 3 -6 0 -11 -7 -11 -8 0 -12 6 -9 14 6 14 -23 45 -69 75 -14 10 -33 32
-42 49 -20 40 -20 49 -2 24 14 -19 15 -19 35 -1 12 11 20 26 19 35 -2 9 4 16
12 16 10 0 14 9 12 25 -1 13 1 21 5 17 3 -4 12 10 19 30 15 42 9 102 -13 146
-7 15 -11 27 -8 27 4 0 -3 14 -15 30 -12 17 -29 30 -37 30 -9 0 -13 3 -10 6 7
7 -32 41 -47 42 -5 0 -12 5 -15 10 -11 17 -85 49 -151 65 -66 17 -241 33 -250
24z m-200 -82 c-7 -9 -15 -13 -19 -10 -3 3 1 10 9 15 21 14 24 12 10 -5z m658
-77 c11 -14 10 -18 -10 -28 -21 -10 -21 -10 -5 3 12 10 14 17 8 22 -6 3 -11
11 -11 17 0 6 1 9 3 7 1 -2 8 -12 15 -21z m-45 -101 c3 -8 2 -20 -3 -26 -5 -9
-7 -4 -7 13 0 29 2 32 10 13z m-884 -125 c-1 -15 -2 -15 -6 1 -2 9 -9 14 -15
11 -7 -4 -8 -2 -4 5 10 15 26 4 25 -17z m478 6 c-3 -8 -6 -5 -6 6 -1 11 2 17
5 13 3 -3 4 -12 1 -19z m418 -58 c3 -5 1 -10 -4 -10 -6 0 -11 5 -11 10 0 6 2
10 4 10 3 0 8 -4 11 -10z m39 -46 c3 -8 2 -12 -4 -9 -6 3 -10 10 -10 16 0 14
7 11 14 -7z m-333 -12 c8 3 28 -1 46 -9 40 -16 46 -16 37 0 -4 6 4 1 18 -13
27 -25 23 -50 -8 -50 -8 0 -14 -4 -14 -8 0 -4 -8 -8 -17 -9 -10 0 -35 -4 -55
-7 -21 -4 -38 -4 -39 1 -9 77 -3 126 11 103 4 -7 14 -10 21 -8z m252 -2 c-3
-11 -9 -17 -14 -15 -10 7 -1 35 11 35 5 0 6 -9 3 -20z m-433 0 c0 -5 8 -6 18
-3 15 6 15 5 -1 -12 -11 -11 -17 -27 -14 -41 7 -37 -4 -43 -46 -29 -33 11 -38
11 -33 -1 3 -8 2 -13 -3 -10 -5 3 -11 20 -13 37 -4 29 -1 33 36 50 47 21 56
23 56 9z m318 -25 c-3 -3 -9 2 -12 12 -6 14 -5 15 5 6 7 -7 10 -15 7 -18z
m-499 -43 c0 -14 -2 -13 -9 3 -5 12 -9 14 -9 6 -1 -8 -4 -12 -7 -8 -9 9 6 28
17 22 5 -4 9 -14 8 -23z m682 1 c13 -16 12 -17 -3 -4 -10 7 -18 15 -18 17 0 8
8 3 21 -13z m-126 -23 c15 12 19 12 29 -1 6 -8 19 -18 29 -22 9 -4 20 -14 24
-24 4 -9 14 -24 22 -34 33 -36 40 -47 34 -53 -3 -3 2 -8 11 -12 9 -3 14 -10
11 -14 -3 -4 3 -25 12 -46 18 -42 20 -53 24 -129 3 -60 -9 -153 -22 -161 -5
-3 -9 -20 -10 -37 0 -27 -2 -29 -9 -12 -6 13 -9 15 -9 5 -1 -8 -15 -30 -32
-48 -17 -18 -27 -37 -23 -44 4 -6 3 -8 -4 -4 -13 8 -62 -13 -62 -27 0 -6 -3
-8 -6 -5 -3 3 -32 -4 -64 -17 -50 -20 -75 -23 -167 -21 -89 1 -116 5 -155 24
-26 12 -50 27 -53 32 -4 6 -10 8 -15 5 -4 -3 -6 3 -3 13 2 10 18 26 34 36 16
10 39 27 51 39 11 12 17 15 13 7 -7 -12 -5 -12 11 1 10 9 29 20 42 24 12 3 20
11 16 16 -3 6 0 9 7 8 8 -2 26 0 41 4 27 7 27 8 14 45 -7 20 -14 75 -15 122
-1 46 -5 88 -7 92 -8 12 74 2 89 -11 8 -6 18 -7 22 -3 5 4 5 2 2 -5 -4 -6 5
-21 20 -33 25 -19 28 -29 29 -80 1 -33 -1 -59 -5 -58 -3 0 -14 0 -25 -1 -16
-1 -17 -3 -5 -18 9 -11 10 -14 2 -9 -9 5 -11 2 -7 -8 3 -9 15 -16 26 -16 10 0
16 -4 13 -10 -3 -5 0 -10 7 -11 7 0 23 -2 36 -3 13 -2 25 1 28 6 3 4 10 6 15
3 5 -4 9 -1 9 6 0 7 3 9 7 6 13 -14 49 64 47 102 -2 41 -30 94 -45 85 -5 -3
-9 2 -9 10 0 19 -50 58 -67 52 -7 -3 -13 -1 -13 5 0 15 -66 40 -86 32 -12 -4
-15 -3 -10 5 5 8 -1 12 -16 12 -57 0 -63 7 -63 71 0 42 4 59 13 59 7 0 11 4 8
9 -4 5 3 7 15 4 12 -3 52 0 90 7 51 10 69 17 69 29 0 14 2 14 9 2 8 -13 12
-13 26 -1z m291 -142 c4 -7 3 -8 -4 -4 -7 4 -12 2 -12 -5 0 -7 -3 -10 -6 -6
-6 5 3 27 11 27 2 0 7 -5 11 -12z m-619 -90 c-3 -8 -6 -5 -6 6 -1 11 2 17 5
13 3 -3 4 -12 1 -19z m-43 -137 c1 -77 -2 -137 -5 -135 -9 5 -20 -56 -13 -67
3 -5 2 -8 -3 -7 -13 4 -63 -33 -58 -42 3 -5 -3 -7 -12 -6 -10 2 -18 9 -18 17
0 8 -2 16 -5 19 -29 26 -47 65 -49 102 -1 24 -3 59 -4 80 -1 20 1 34 5 32 4
-3 10 11 14 31 3 19 11 35 16 35 6 0 8 11 6 25 -4 20 -3 23 8 14 13 -11 18 -5
15 14 -1 5 3 6 8 3 14 -9 42 5 34 17 -3 6 -1 7 5 3 7 -4 20 -3 29 3 10 5 20 8
22 5 3 -2 5 -67 5 -143z m603 47 c-3 -8 -6 -5 -6 6 -1 11 2 17 5 13 3 -3 4
-12 1 -19z m-162 -67 c0 -16 -3 -27 -7 -24 -13 7 -7 53 6 53 1 0 1 -13 1 -29z
m152 7 c-3 -8 -6 -5 -6 6 -1 11 2 17 5 13 3 -3 4 -12 1 -19z m-177 -83 c0 -5
-5 -3 -10 5 -5 8 -10 20 -10 25 0 6 5 3 10 -5 5 -8 10 -19 10 -25z m-375 -34
c3 -5 0 -13 -6 -17 -7 -4 -9 -3 -5 4 3 5 0 13 -6 15 -9 4 -10 6 -1 6 6 1 14
-3 18 -8z m-344 -24 c-10 -9 -11 -8 -5 6 3 10 9 15 12 12 3 -3 0 -11 -7 -18z
m966 -9 c-3 -8 -6 -5 -6 6 -1 11 2 17 5 13 3 -3 4 -12 1 -19z m-806 -43 c5 4
6 -1 2 -10 -5 -13 -7 -14 -14 -3 -5 7 -8 18 -8 23 0 6 3 4 6 -3 2 -6 9 -10 14
-7z m723 -7 c-2 -3 -13 -6 -24 -5 -24 2 -18 13 9 13 11 0 18 -4 15 -8z m-84
-42 c0 -3 -4 -8 -10 -11 -5 -3 -10 -1 -10 4 0 6 5 11 10 11 6 0 10 -2 10 -4z
m-623 -46 c-12 -18 -15 -19 -21 -5 -3 9 -2 13 4 10 6 -3 13 1 16 10 4 9 9 14
11 11 3 -3 -2 -14 -10 -26z m33 -4 c0 -2 -7 -7 -16 -10 -8 -3 -12 -2 -9 4 6
10 25 14 25 6z m530 0 c0 -3 -4 -8 -10 -11 -5 -3 -10 -1 -10 4 0 6 5 11 10 11
6 0 10 -2 10 -4z m-105 -44 c-3 -3 -11 0 -18 7 -9 10 -8 11 6 5 10 -3 15 -9
12 -12z"/>
<path d="M1370 1321 c-8 -6 -19 -7 -25 -3 -5 3 -3 -2 5 -13 12 -15 16 -78 20
-374 5 -320 3 -380 -15 -458 -5 -22 -3 -23 80 -23 47 0 85 2 85 4 0 3 -5 17
-11 33 -6 17 -10 119 -10 266 1 159 -2 236 -9 232 -5 -3 -10 -1 -10 4 0 6 5
11 11 11 5 0 7 5 3 11 -5 8 -1 8 13 0 11 -6 24 -7 28 -3 5 4 5 2 2 -4 -3 -6 4
-20 16 -32 35 -32 61 -65 77 -95 8 -16 16 -24 18 -18 2 7 -2 19 -10 29 -12 15
-11 16 5 3 14 -11 17 -11 17 0 0 11 2 11 10 -1 5 -8 10 -19 10 -25 0 -5 -4 -4
-9 3 -6 10 -10 7 -13 -12 -5 -23 22 -82 33 -72 2 2 5 -7 5 -20 3 -35 13 -42
30 -20 8 11 14 15 14 9 0 -7 -6 -18 -14 -26 -12 -11 -12 -19 -3 -38 7 -13 19
-49 26 -79 8 -30 19 -63 24 -72 8 -11 8 -27 0 -52 l-11 -35 89 -3 c80 -3 89
-1 89 15 0 10 -4 15 -10 12 -5 -3 -7 0 -5 8 3 7 -3 22 -15 32 -20 18 -28 41
-11 31 4 -3 1 15 -8 39 -9 25 -21 43 -27 41 -8 -3 -10 3 -6 16 4 16 2 19 -8
13 -9 -5 -11 -4 -6 3 4 7 -3 40 -15 73 l-23 62 -18 -23 c-10 -12 -18 -18 -18
-13 0 5 5 14 11 20 15 15 -1 56 -42 113 -16 22 -26 40 -22 41 5 0 25 2 47 5
21 2 45 9 53 16 8 7 25 17 37 23 11 6 20 18 20 27 -1 11 4 14 15 11 13 -5 12
-2 -4 18 -16 19 -16 21 -2 10 14 -11 20 -12 30 -2 16 16 15 143 -1 162 -6 8
-24 29 -39 48 -28 35 -86 66 -103 56 -6 -4 -10 -2 -10 3 0 6 -18 9 -40 8 -22
-1 -40 1 -40 6 0 11 -292 10 -310 -1z m324 -72 c34 -7 85 -73 95 -123 5 -25 5
-43 0 -40 -5 3 -9 -6 -9 -19 0 -14 -7 -28 -16 -31 -8 -3 -12 -11 -8 -17 5 -8
3 -9 -6 -4 -10 6 -12 4 -6 -11 6 -15 5 -17 -5 -6 -14 13 -33 17 -25 4 3 -5
-20 -5 -51 -1 -31 4 -61 5 -66 2 -6 -3 -7 -2 -4 4 3 5 -10 25 -30 44 -20 19
-32 28 -28 20 5 -10 4 -12 -4 -7 -6 4 -9 11 -7 14 2 4 -2 32 -10 62 -8 30 -14
70 -14 88 l0 34 88 -5 c48 -3 96 -7 106 -8z m-227 -41 c-3 -8 -6 -5 -6 6 -1
11 2 17 5 13 3 -3 4 -12 1 -19z m323 -2 c0 -3 -4 -8 -10 -11 -5 -3 -10 -1 -10
4 0 6 5 11 10 11 6 0 10 -2 10 -4z m50 -30 c0 -3 -4 -8 -10 -11 -5 -3 -10 -1
-10 4 0 6 5 11 10 11 6 0 10 -2 10 -4z m-263 -162 c-3 -3 -12 -4 -19 -1 -8 3
-5 6 6 6 11 1 17 -2 13 -5z m12 -28 c9 -11 9 -16 0 -22 -7 -4 -9 -3 -5 4 3 6
-2 15 -11 21 -10 6 -13 11 -7 11 6 0 17 -6 23 -14z m46 -54 c-3 -3 -11 0 -18
7 -9 10 -8 11 6 5 10 -3 15 -9 12 -12z m-235 -367 c0 -5 -5 -3 -10 5 -5 8 -10
20 -10 25 0 6 5 3 10 -5 5 -8 10 -19 10 -25z m77 -27 c-3 -8 -6 -5 -6 6 -1 11
2 17 5 13 3 -3 4 -12 1 -19z"/>
<path d="M2090 1320 c-8 -5 -17 -7 -21 -4 -4 2 -5 -8 -2 -23 3 -16 7 -210 9
-431 2 -348 1 -403 -12 -398 -8 3 -14 1 -14 -4 0 -6 81 -11 208 -11 114 -1
220 -2 235 -3 25 -1 31 5 42 37 9 27 9 37 1 37 -8 0 -7 3 1 8 9 6 11 30 4 49
-2 5 -56 -50 -54 -56 1 -3 -59 -7 -133 -9 -112 -3 -136 -1 -150 12 -8 9 -11
16 -6 16 15 0 16 408 1 426 -7 8 -9 17 -5 21 3 3 6 1 6 -6 0 -9 7 -8 28 2 35
16 73 14 102 -6 12 -8 29 -13 38 -10 11 5 13 3 7 -7 -5 -8 -3 -11 6 -8 8 3 13
11 11 17 -1 7 2 10 8 6 6 -3 8 -11 5 -16 -15 -23 46 -6 76 22 29 27 31 32 16
40 -9 6 -21 7 -27 4 -5 -3 -30 3 -54 15 -46 20 -112 28 -101 11 3 -5 1 -12 -5
-16 -5 -3 -10 1 -10 9 0 25 -19 19 -56 -19 -32 -33 -34 -34 -34 -13 0 17 -2
20 -9 9 -7 -10 -9 -7 -8 12 1 14 4 24 7 22 3 -2 7 37 8 87 2 68 0 88 -9 82 -8
-5 -9 -3 -4 6 4 7 2 16 -5 20 -7 4 47 6 120 4 103 -3 137 -7 150 -19 16 -15
19 -14 34 0 19 20 12 37 -11 28 -15 -6 -16 -5 -3 9 8 9 17 12 18 7 2 -5 8 -9
14 -9 6 0 7 7 4 16 -3 8 -2 12 4 9 12 -7 13 5 2 20 -9 13 -412 17 -432 5z
m345 -350 c3 -5 1 -10 -4 -10 -6 0 -11 5 -11 10 0 6 2 10 4 10 3 0 8 -4 11
-10z m-238 -362 c-3 -7 -5 -2 -5 12 0 14 2 19 5 13 2 -7 2 -19 0 -25z m300
-140 c-3 -8 -6 -5 -6 6 -1 11 2 17 5 13 3 -3 4 -12 1 -19z m20 0 c-3 -8 -6 -5
-6 6 -1 11 2 17 5 13 3 -3 4 -12 1 -19z"/>
<path d="M2698 1323 c-19 -5 -22 -20 -12 -47 8 -21 21 -20 27 2 4 13 5 12 6
-5 0 -12 -4 -25 -10 -28 -6 -5 -10 -66 -8 -175 1 -92 -1 -173 -5 -179 -4 -6
-7 -55 -6 -108 1 -54 0 -101 -1 -105 -1 -5 -2 -11 -3 -15 -1 -5 -7 -18 -14
-30 -12 -22 -9 -28 12 -24 5 1 4 -5 -3 -13 -11 -13 -10 -17 3 -22 9 -3 13 -11
10 -18 -3 -6 2 -2 10 8 17 21 22 11 7 -14 -14 -21 58 -83 78 -67 11 9 13 9 8
0 -4 -7 2 -18 15 -27 27 -19 42 -21 33 -3 -4 6 -1 5 7 -4 7 -9 18 -14 25 -12
6 2 14 -1 18 -6 8 -14 122 -14 130 -1 4 6 15 8 26 5 10 -4 19 -2 19 4 0 6 6 8
13 6 6 -3 23 5 37 16 14 11 19 17 11 13 -9 -4 -12 -3 -7 4 4 6 13 9 21 5 8 -3
15 0 15 7 0 6 4 9 9 6 11 -7 43 29 70 76 17 31 19 43 10 65 -6 16 -11 44 -10
63 0 19 -3 30 -7 23 -4 -6 -6 75 -5 180 1 125 -1 185 -7 172 -7 -14 -8 -7 -4
25 3 25 6 70 6 100 1 30 7 67 14 81 20 40 1 51 -70 43 -31 -4 -56 -10 -57 -13
0 -3 -2 -17 -5 -30 -2 -13 0 -29 4 -35 5 -6 10 -83 11 -171 2 -88 6 -212 10
-275 6 -82 4 -131 -5 -170 -7 -30 -10 -59 -7 -64 4 -5 1 -6 -5 -2 -11 6 -14 0
-11 -20 0 -4 -5 -10 -13 -15 -7 -4 -13 -16 -13 -25 0 -10 -7 -19 -15 -21 -12
-4 -13 -3 -1 5 22 16 4 34 -21 21 -32 -17 -89 -17 -128 -1 -19 8 -39 14 -43
13 -5 -1 -6 3 -3 8 3 5 -1 14 -9 21 -13 10 -15 10 -12 -1 2 -8 2 -11 0 -6 -8
13 -22 -3 -17 -18 4 -8 11 -12 17 -8 6 4 7 1 2 -7 -6 -10 -11 -9 -21 5 -11 15
-11 21 1 38 11 16 12 24 2 41 -8 15 -11 69 -9 181 2 88 4 226 5 307 1 87 5
144 10 141 6 -3 8 8 5 26 -2 17 -1 31 3 31 16 0 16 39 0 44 -19 6 -119 5 -143
-1z m9 -495 c-3 -8 -6 -5 -6 6 -1 11 2 17 5 13 3 -3 4 -12 1 -19z m7 -217 c3
-5 -2 -15 -12 -22 -15 -12 -16 -12 -5 2 7 9 10 19 6 22 -3 4 -4 7 0 7 3 0 8
-4 11 -9z m504 -60 c-7 -9 -13 -18 -15 -20 -1 -2 -1 5 0 16 0 11 7 20 14 20
10 0 10 -4 1 -16z"/>
<path d="M3428 1323 c-16 -3 -28 -9 -28 -14 0 -6 4 -8 9 -5 5 4 7 -3 4 -14 -6
-21 12 -28 20 -7 2 6 3 -1 2 -18 -1 -16 -5 -37 -8 -45 -4 -8 -6 -175 -4 -372
1 -235 -1 -354 -8 -350 -5 3 -7 2 -3 -3 4 -4 3 -14 -3 -21 -7 -9 -6 -14 2 -20
7 -4 109 -8 226 -8 183 -1 213 1 214 14 0 9 4 5 9 -7 12 -28 24 -30 17 -3 -3
11 -1 20 4 20 5 0 8 3 7 8 -1 4 2 24 6 44 11 49 0 65 -24 36 -11 -13 -19 -19
-20 -14 0 5 -7 3 -15 -4 -8 -7 -13 -15 -11 -19 4 -6 -64 -11 -201 -14 l-72 -2
-1 199 c0 109 -1 201 -2 205 -7 59 33 103 76 83 15 -7 28 -7 41 0 12 7 16 7
11 0 -8 -14 31 -35 50 -28 9 3 12 1 9 -4 -4 -7 7 -10 29 -8 28 2 35 6 31 18
-5 11 -3 12 5 3 9 -8 18 -6 35 9 25 21 24 58 0 38 -9 -8 -24 -5 -54 11 -56 29
-146 34 -171 9 -10 -10 -21 -16 -24 -13 -3 4 -6 -1 -6 -9 0 -9 -8 -18 -17 -20
-17 -4 -18 5 -16 119 1 68 5 129 9 135 5 7 2 9 -9 5 -11 -4 -14 -2 -11 8 5 12
9 12 27 1 27 -16 157 -22 157 -7 0 6 5 11 11 11 5 0 7 -5 3 -11 -5 -8 4 -10
29 -7 26 3 38 -1 47 -15 11 -18 12 -18 30 -2 11 10 17 22 14 26 -3 5 0 9 6 9
5 0 9 13 8 29 -1 16 -6 27 -11 24 -8 -5 -154 -5 -322 1 -44 1 -92 1 -107 -1z
m192 -47 c0 -2 -7 -7 -16 -10 -8 -3 -12 -2 -9 4 6 10 25 14 25 6z m197 -28
c-3 -8 -6 -5 -6 6 -1 11 2 17 5 13 3 -3 4 -12 1 -19z m-380 -660 c-3 -8 -6 -5
-6 6 -1 11 2 17 5 13 3 -3 4 -12 1 -19z m443 -64 c0 -8 -5 -12 -10 -9 -6 4 -8
11 -5 16 9 14 15 11 15 -7z m-349 -17 c-10 -9 -11 -8 -5 6 3 10 9 15 12 12 3
-3 0 -11 -7 -18z"/>
<path d="M4041 1319 c-15 -6 -21 -14 -17 -25 3 -9 6 -21 6 -27 0 -7 4 -6 10 3
6 9 10 10 10 3 0 -6 -4 -14 -9 -18 -6 -3 -6 -18 -1 -37 5 -17 7 -34 5 -38 -2
-4 -5 -167 -5 -363 -1 -263 -4 -357 -13 -360 -7 -2 30 -5 80 -6 79 -1 92 1 87
14 -3 8 -9 13 -13 11 -3 -3 -8 95 -10 217 -1 122 -5 226 -8 231 -4 5 -1 6 5 2
7 -4 12 -2 12 3 0 6 -4 11 -9 11 -12 0 0 51 13 56 7 3 71 6 142 7 l130 3 11
-44 c5 -23 6 -45 2 -48 -5 -3 -8 -93 -8 -202 1 -121 -3 -208 -10 -225 -6 -16
-11 -30 -11 -31 0 -2 39 -4 86 -5 l87 -2 -9 28 c-4 15 -9 190 -11 388 -2 292
0 369 12 408 8 26 10 45 5 42 -6 -4 -10 -3 -10 2 0 4 -35 8 -78 8 l-77 -1 3
-29 c2 -17 6 -33 10 -37 4 -4 6 -44 4 -90 l-3 -83 -111 2 c-76 2 -116 -1 -127
-10 -12 -9 -13 -9 -7 1 11 18 -5 14 -20 -5 -13 -17 -14 -17 -8 -1 4 11 0 20
-8 23 -11 5 -12 21 -3 99 6 52 18 102 26 112 13 16 12 16 -11 4 -22 -12 -24
-12 -12 2 11 14 5 16 -50 16 -35 0 -74 -4 -87 -9z m533 -89 c-6 -6 -10 -3 -10
10 0 13 4 16 10 10 7 -7 7 -13 0 -20z m-370 -212 c-3 -5 -10 -6 -15 -3 -5 4
-9 1 -9 -4 0 -6 -5 -11 -11 -11 -8 0 -8 4 0 13 12 15 44 19 35 5z m-124 -551
c0 -7 -4 -6 -10 3 -8 12 -10 12 -10 1 0 -8 -3 -12 -6 -8 -9 9 6 28 17 22 5 -4
9 -12 9 -18z"/>
<path d="M293 253 c-43 -55 -75 -127 -69 -157 6 -34 15 -48 27 -40 5 3 8 0 7
-8 -2 -7 3 -12 10 -11 6 2 12 -2 12 -7 0 -13 36 -13 61 0 10 6 19 18 19 26 0
8 4 13 9 10 5 -3 11 3 14 14 3 11 1 22 -4 25 -4 3 -6 12 -2 21 4 12 1 13 -21
4 -18 -7 -25 -7 -21 0 3 6 0 17 -9 25 -17 17 -16 70 2 102 21 38 -5 35 -35 -4z
m10 -44 c4 -16 3 -18 -9 -8 -7 6 -11 15 -8 20 8 13 11 11 17 -12z m2 -129 c4
-6 -1 -7 -11 -3 -14 5 -16 3 -11 -12 6 -15 5 -16 -8 -5 -13 11 -13 15 -3 21
17 11 26 11 33 -1z m42 -22 c2 -17 0 -19 -7 -8 -5 8 -6 18 -4 22 8 12 10 10
11 -14z m-36 -21 c-10 -9 -11 -8 -5 6 3 10 9 15 12 12 3 -3 0 -11 -7 -18z"/>
</g>
</svg>
